<svg width="750" height="421" viewBox="0 0 750 421" fill="none" xmlns="http://www.w3.org/2000/svg">
<mask id="mask0_3389_5" style="mask-type:alpha" maskUnits="userSpaceOnUse" x="0" y="0" width="750" height="421">
<rect width="750" height="421" fill="#D9D9D9"/>
</mask>
<g mask="url(#mask0_3389_5)">
<path d="M0 -10C18.5 -8.5 44.5 5.5 58 32C75.482 66.3166 76.5 192 220.5 262C360.839 330.22 673 255.5 760 421" stroke="white"/>
<path d="M35 -26C53.5 -24.5 79.5 -10.5 93 16C110.482 50.3166 111.5 176 255.5 246C395.839 314.22 708 239.5 795 405" stroke="white"/>
<path d="M70 -42C88.5 -40.5 114.5 -26.5 128 0C145.482 34.3166 146.5 160 290.5 230C430.839 298.22 743 223.5 830 389" stroke="white"/>
<path d="M105 -58C123.5 -56.5 149.5 -42.5 163 -16C180.482 18.3166 181.5 144 325.5 214C465.839 282.22 778 207.5 865 373" stroke="white"/>
<path d="M140 -74C158.5 -72.5 184.5 -58.5 198 -32C215.482 2.31659 216.5 128 360.5 198C500.839 266.22 813 191.5 900 357" stroke="white"/>
</g>
</svg>
